<svg width="421" height="120" viewBox="0 0 421 120" fill="none" xmlns="http://www.w3.org/2000/svg">
<path d="M60.0654 114.7C60.0654 117.756 57.5903 120.259 54.5562 119.979C48.5571 119.424 42.6646 117.967 37.0794 115.648C29.7919 112.621 23.1703 108.184 17.5928 102.591C12.0152 96.9977 7.59078 90.3577 4.57221 83.05C1.55364 75.7422 0 67.9098 0 60C0 52.0902 1.55364 44.2578 4.57221 36.95C7.59078 29.6423 12.0152 23.0023 17.5928 17.4092C23.1703 11.8161 29.7919 7.37945 37.0794 4.35249C42.6646 2.03258 48.5571 0.575557 54.5562 0.0214544C57.5903 -0.258784 60.0654 2.24443 60.0654 5.29979V31.1851C44.1954 31.1851 31.3303 44.0861 31.3303 60.0002C31.3303 75.9141 44.1951 88.8149 60.0648 88.8153L60.0654 31.1851C75.9354 31.1851 88.8 44.0861 88.8 60.0003C88.8 75.9142 75.9345 88.815 60.0648 88.8153L60.0654 114.7Z" fill="#251B9F"/>
<path d="M60.001 88.7999L60.0004 31.1999C75.9062 31.1999 88.8 44.0945 88.8 60.0003C88.8 75.9059 75.9065 88.7995 60.001 88.7999Z" fill="#251B9F"/>
<path d="M60.07 90.8214V114.701C60.07 117.761 57.6 120.261 54.56 119.981C48.56 119.431 42.67 117.971 37.08 115.651C29.79 112.621 23.17 108.191 17.59 102.591C12.01 97.0014 7.59 90.3614 4.57 83.0514C1.55 75.7414 0 67.9114 0 60.0014C0 52.0914 1.55 44.2614 4.57 36.9514C7.59 29.6414 12.01 23.0014 17.59 17.4114C23.17 11.8214 29.79 7.38144 37.08 4.35144C42.67 2.03144 48.57 0.581444 54.57 0.0214435C57.6 -0.258556 60.08 2.24144 60.08 5.30144V31.1914C44.21 31.1914 31.34 44.0914 31.34 60.0114C31.34 75.9314 44.2 88.8214 60.07 88.8314" fill="#251B9F"/>
<path d="M60.0052 89.0532L60.0046 31.0769C76.0143 31.0769 88.9928 44.0553 88.9928 60.0651C88.9928 76.0746 76.0147 89.0529 60.0052 89.0532Z" fill="#FF491B"/>
<path d="M389.823 57.5727C389.823 59.0485 390.631 60.173 392.247 60.946C393.934 61.6488 396.57 62.3867 400.154 63.1598C404.23 64.0031 407.638 64.9519 410.379 66.006C413.12 67.0602 415.474 68.7469 417.442 71.066C419.48 73.3149 420.499 76.372 420.499 80.2372C420.499 83.6808 419.445 86.6676 417.337 89.1976C415.298 91.7276 412.558 93.6603 409.114 94.9955C405.67 96.2605 401.911 96.893 397.835 96.893C392.283 96.893 387.504 95.8389 383.498 93.7305C379.562 91.6222 376.646 88.6003 374.748 84.6647L385.501 79.0777C387.398 83.9268 391.51 86.3514 397.835 86.3514C400.575 86.3514 402.93 85.8243 404.897 84.7702C406.865 83.716 407.849 82.205 407.849 80.2372C407.849 78.5506 406.935 77.3207 405.108 76.5477C403.351 75.7043 400.47 74.7907 396.464 73.8068C392.318 72.823 388.944 71.8391 386.344 70.8552C383.744 69.8713 381.495 68.3603 379.598 66.3223C377.7 64.214 376.751 61.438 376.751 57.9944C376.751 54.6211 377.7 51.7045 379.598 49.2448C381.495 46.7148 384.06 44.7822 387.293 43.4469C390.526 42.1117 394.075 41.444 397.94 41.444C402.508 41.444 406.584 42.3928 410.168 44.2903C413.823 46.1877 416.634 48.8934 418.602 52.4073L407.954 57.7836C406.127 53.848 402.789 51.8802 397.94 51.8802C395.48 51.8802 393.512 52.4073 392.037 53.4615C390.561 54.4454 389.823 55.8158 389.823 57.5727Z" fill="#251B9F"/>
<path d="M347.923 41.444C352.983 41.444 357.516 42.709 361.522 45.239C365.598 47.6987 368.761 51.0369 371.01 55.2536C373.258 59.4702 374.383 64.1437 374.383 69.2739C374.383 70.9606 374.242 72.5067 373.961 73.9123H333.27C334.325 77.637 336.187 80.5535 338.858 82.6618C341.528 84.6999 344.937 85.7189 349.083 85.7189C351.613 85.7189 354.037 85.1567 356.357 84.0322C358.746 82.9078 360.538 81.4671 361.733 79.7102L371.747 85.6135C369.288 89.2679 366.09 92.079 362.155 94.0468C358.289 95.9443 353.827 96.893 348.767 96.893C343.144 96.893 338.155 95.6983 333.798 93.3089C329.44 90.9194 326.067 87.6164 323.678 83.3997C321.358 79.1831 320.199 74.4393 320.199 69.1685C320.199 63.968 321.358 59.2594 323.678 55.0427C326.067 50.8261 329.37 47.523 333.587 45.1336C337.803 42.6739 342.582 41.444 347.923 41.444ZM362.155 63.6869C361.592 60.3135 360.011 57.6781 357.411 55.7806C354.881 53.8129 351.683 52.829 347.818 52.829C345.147 52.829 342.688 53.3209 340.439 54.3048C338.26 55.2887 336.503 56.624 335.168 58.3106C333.833 59.9973 333.13 61.7894 333.06 63.6869H362.155Z" fill="#251B9F"/>
<path d="M313.263 80.6593C313.263 81.7838 313.544 82.592 314.107 83.0839C314.669 83.5758 315.547 83.8218 316.742 83.8218C317.656 83.8218 318.745 83.7164 320.01 83.5056V95.523C317.41 95.9447 314.985 96.1555 312.736 96.1555C308.66 96.1555 305.533 95.1014 303.354 92.993C301.246 90.8144 300.192 86.9843 300.192 81.5026V21.7316H313.263V80.6593Z" fill="#251B9F"/>
<path d="M297.076 85.2988C294.475 88.8829 291.207 91.7292 287.272 93.8375C283.336 95.9458 279.085 97 274.516 97C269.527 97 264.888 95.7701 260.602 93.3104C256.385 90.7804 253.012 87.4071 250.482 83.1905C248.022 78.9035 246.792 74.2652 246.792 69.2755C246.792 64.2858 248.022 59.6826 250.482 55.4659C253.012 51.179 256.385 47.8057 260.602 45.346C264.888 42.816 269.527 41.551 274.516 41.551C279.014 41.551 283.231 42.6051 287.166 44.7135C291.102 46.7515 294.37 49.5275 296.97 53.0414L286.218 60.3151C282.915 56.4498 279.014 54.5172 274.516 54.5172C271.846 54.5172 269.386 55.1848 267.137 56.5201C264.888 57.8554 263.096 59.6475 261.761 61.8963C260.426 64.1452 259.758 66.6049 259.758 69.2755C259.758 71.946 260.426 74.4058 261.761 76.6546C263.096 78.9035 264.888 80.6956 267.137 82.0309C269.386 83.2959 271.846 83.9284 274.516 83.9284C279.014 83.9284 282.915 81.9957 286.218 78.1305L297.076 85.2988Z" fill="#251B9F"/>
<path d="M247.282 41.7603L246.334 54.094C245.912 53.9535 245.174 53.8832 244.12 53.8832C239.763 53.8832 236.143 55.1482 233.262 57.6782C230.451 60.2082 229.045 63.6518 229.045 68.009V95.5227H215.974V42.8145H229.045V51.6695C230.24 48.8583 232.278 46.5041 235.16 44.6066C238.041 42.7091 241.52 41.7603 245.596 41.7603H247.282Z" fill="#251B9F"/>
<path d="M118 58.8377C118 51.9505 119.687 45.5904 123.06 39.7573C126.504 33.9243 131.142 29.3211 136.975 25.9478C142.808 22.5042 149.168 20.7824 156.055 20.7824C163.083 20.7824 169.584 22.6096 175.557 26.264C181.531 29.8482 186.134 34.6271 189.367 40.6007L177.244 47.0311C175.136 43.3063 172.184 40.3195 168.389 38.0707C164.594 35.7515 160.483 34.5919 156.055 34.5919C151.698 34.5919 147.622 35.6812 143.827 37.8598C140.102 40.0384 137.151 42.9901 134.972 46.7148C132.793 50.4395 131.704 54.4805 131.704 58.8377C131.704 63.1949 132.793 67.2359 134.972 70.9606C137.151 74.6853 140.102 77.6369 143.827 79.8156C147.622 81.9942 151.698 83.0835 156.055 83.0835C160.623 83.0835 164.77 81.9239 168.494 79.6047C172.289 77.2856 175.241 74.1933 177.349 70.3281L189.472 76.9693C186.24 83.0132 181.636 87.8623 175.663 91.5168C169.689 95.1009 163.153 96.893 156.055 96.893C149.168 96.893 142.808 95.2063 136.975 91.833C131.142 88.3894 126.504 83.7511 123.06 77.9181C119.687 72.085 118 65.7249 118 58.8377Z" fill="#251B9F"/>
<path d="M194.045 95.522V42.8138H207.117V95.522H194.045Z" fill="#251B9F"/>
<path d="M210.044 24.5833C210.044 29.876 205.754 34.1666 200.461 34.1666C195.168 34.1666 190.878 29.876 190.878 24.5833C190.878 19.2906 195.168 15 200.461 15C205.754 15 210.044 19.2906 210.044 24.5833Z" fill="#251B9F"/>
</svg>
