<svg version="1.0" xmlns="http://www.w3.org/2000/svg" viewBox="300 580 2160 360" preserveAspectRatio="xMidYMid meet">
  <g fill="#152b76">
    <path d="M458.67 919.33 c-57.76 -7.59 -106.32 -42.17 -127.91 -90.93 -14.19 -31.78 -17.99 -77.14 -9.19 -109.92 15.99 -59.96 61.36 -103.52 120.51 -115.72 22.78 -4.80 64.55 -4.40 84.74 0.80 17.59 4.60 39.97 14.39 54.16 24.18 11.99 8.19 34.57 29.58 34.57 32.78 0 1.40 -9.99 11.99 -21.98 23.78 l-22.18 21.58 -13.79 -12.99 c-23.98 -22.78 -45.17 -31.78 -74.15 -31.78 -56.36 0.20 -97.73 41.37 -97.73 97.73 0 19.59 3.20 32.98 11.39 48.96 23.98 45.97 85.34 63.55 134.50 38.57 5.60 -2.80 16.79 -11.39 24.98 -19.19 10.39 -9.99 15.59 -13.59 17.59 -12.39 1.60 0.80 12.19 10.39 23.58 21.18 l20.78 19.79 -17.99 17.39 c-20.39 19.79 -35.77 29.18 -61.95 37.97 -27.98 9.19 -52.16 11.79 -79.94 8.19z" />
    <path d="M749.85 919.33 c-58.96 -8.39 -102.33 -46.37 -113.52 -99.93 -8.39 -39.57 7.19 -85.94 37.97 -113.12 12.19 -10.79 37.97 -23.58 53.16 -26.58 6 -1.20 17.79 -2.60 25.98 -3.20 l14.99 -1.20 -7.99 4.40 c-24.98 13.59 -45.57 37.37 -56.36 64.75 -4.80 12.59 -5.40 16.59 -5.60 38.97 0 23.58 0.40 25.58 5.80 36.77 7.39 15.19 20.19 27.98 34.77 34.77 10.19 4.80 13.59 5.40 34.38 5.40 20.78 0 24.18 -0.60 34.38 -5.40 23.98 -11.19 37.17 -29.98 39.17 -55.76 1.80 -26.18 -9.79 -47.37 -31.18 -56.76 -4.60 -2.20 -8.39 -4.40 -8.39 -5.40 0 -0.80 2.40 -3 5.40 -5 4 -2.60 9.59 -3.40 24.38 -3.60 17.79 0 20.19 0.40 32.58 6.60 15.79 7.79 25.58 17.99 34.38 36.37 5.80 11.99 6.20 14.59 6 32.98 -0.20 16.59 -1 22.38 -5.60 33.98 -18.59 48.36 -65.35 79.14 -124.11 81.94 -9.79 0.40 -23.58 0 -30.58 -1z" />
    <path d="M1794.30 918.13 c-83.94 -15.19 -127.11 -99.53 -90.33 -176.27 13.39 -28.18 43.97 -53.16 74.75 -61.36 6 -1.60 21.78 -3.60 35.17 -4.20 43.57 -2.40 71.55 7.59 99.93 35.97 24.58 24.58 34.77 49.56 34.77 85.54 0 48.76 -24.58 88.14 -67.95 108.92 -21.18 9.99 -21.18 9.99 -38.57 12.39 -19.59 2.80 -28.38 2.60 -47.77 -1z m55.56 -63.35 c12.99 -6.60 25.58 -20.78 30.18 -33.98 11.79 -34.18 -4.80 -71.35 -37.17 -83.54 -16.59 -6.20 -39.57 -4.80 -54.36 3.60 -21.38 11.99 -32.78 33.58 -31.38 60.16 1 23.98 12.39 42.57 32.18 52.76 13.19 6.60 17.39 7.59 34.38 6.80 12.59 -0.40 18.19 -1.60 26.18 -5.80z" />
    <path d="M2332.90 919.53 c-28.38 -4.60 -54.76 -17.19 -71.55 -34.18 l-9.19 -9.39 17.19 -19.19 c9.59 -10.59 17.99 -19.39 18.79 -19.39 0.80 0 4 2.80 7.19 6 13.59 14.19 39.77 25.98 57.76 25.98 24.98 0 41.57 -18.19 29.18 -31.58 -7.19 -7.79 -12.99 -10.39 -40.17 -18.59 -44.57 -13.39 -58.76 -22.38 -69.55 -44.17 -5.20 -10.19 -6.20 -14.59 -6.20 -26.78 0 -28.78 14.19 -50.36 41.37 -63.35 13.19 -6.20 14.39 -6.40 45.57 -6.99 28.78 -0.60 33.58 -0.20 44.97 3.60 12.99 4.40 29.98 13.79 40.77 22.78 l5.60 4.60 -15.99 20.19 -15.79 19.99 -10.39 -6.99 c-21.38 -14.39 -51.36 -19.19 -65.55 -10.79 -8.39 5.20 -10.59 14.59 -5.20 21.98 6 7.79 14.19 11.79 39.77 19.39 33.78 9.99 50.36 18.59 62.35 31.78 13.19 14.39 17.19 26.18 15.99 46.77 -2 31.98 -21.98 53.76 -59.56 64.95 -12.79 3.80 -43.17 5.60 -57.36 3.40z" />
    <path d="M978.89 913.74 l-31.58 -0.60 0 -115.72 0 -115.92 30.98 0 30.98 0 0 11.99 c0 6.60 0.60 11.99 1.20 11.99 0.80 0 5.80 -4.20 11.19 -9.19 15.19 -14.19 28.58 -19.39 52.56 -20.39 31.38 -1.40 52.56 6.20 71.15 25.78 l9.19 9.59 10.19 -9.79 c18.19 -17.39 41.57 -25.98 72.35 -25.98 27.98 0 50.96 9.39 68.15 27.38 l10.99 11.59 10.99 -10.99 c13.19 -13.39 27.18 -21.18 45.17 -24.98 38.57 -8.19 73.75 0.80 94.33 24.18 l7.99 9.19 9.79 -9.79 c18.19 -18.19 41.17 -26.58 73.35 -26.58 46.97 0 80.34 25.78 91.93 70.95 2.40 9.59 3 26.58 3 89.93 l0 77.94 -31.38 0 -31.58 0 -1 -72.95 c-1 -70.75 -1.20 -73.35 -5.60 -82.94 -8.79 -18.79 -19.59 -25.58 -41.37 -25.78 -16.19 -0.20 -26.58 4.40 -36.57 15.59 -10.59 12.19 -11.19 15.99 -11.79 94.13 -0.40 47.57 -1.20 71.95 -2.60 71.75 -1 -0.20 -15.39 -0.40 -31.98 -0.40 l-29.98 -0.40 0 -64.35 c0 -37.57 -1 -69.35 -2.20 -76.74 -4.60 -25.98 -19.39 -39.57 -43.77 -39.77 -20.98 0 -36.97 11.59 -45.37 33.18 -2.80 7.59 -3.40 18.59 -4.20 78.74 l-0.80 69.95 -32.18 -0.40 -32.38 -0.40 -1 -74.55 c-1 -80.74 -1 -80.34 -12.79 -93.13 -18.39 -20.39 -56.36 -17.19 -72.35 6.20 -7.99 11.99 -8.79 19.39 -8.79 92.33 l0 69.95 -32.38 -0.40 -32.58 -0.20 -1 -73.75 -1 -73.55 -5.60 -11.39 c-15.59 -31.58 -62.75 -31.18 -80.54 0.80 l-5.80 10.59 -0.60 72.95 c-0.40 40.17 -1.20 73.35 -2 73.95 -0.80 0.60 -15.59 0.80 -32.78 0.40z" />
    <path d="M1989.55 913.14 c-0.60 -1.60 -0.80 -53.96 -0.60 -116.72 l0.60 -113.92 31.58 -0.60 31.38 -0.60 0 14.19 0 14.19 9.39 -8.99 c19.39 -18.59 43.57 -26.58 75.35 -24.78 37.37 2.20 65.75 23.98 77.54 59.56 4.40 12.39 4.60 16.59 5.20 95.33 l0.60 82.34 -31.98 0.60 -31.98 0.60 -0.80 -70.95 c-0.80 -78.74 -1 -80.34 -13.79 -94.93 -9.39 -10.59 -20.98 -15.59 -36.57 -15.59 -22.38 0.20 -38.57 11.79 -46.77 33.58 -4 10.59 -4.20 14.99 -4.20 78.94 l0 67.95 -25.78 0 c-14.19 0 -28.38 0.60 -31.98 1.20 -4.20 1 -6.40 0.40 -7.19 -1.40z" />
  </g>
  <g fill="#f24f1f">
    <path d="M716.08 809.81 c-5 -11.39 -4.20 -40.17 1.20 -56.36 20.78 -60.56 83.94 -90.33 136.10 -63.95 14.99 7.59 32.18 23.38 40.97 37.97 3.80 6.20 6.99 12.19 6.99 12.99 0 0.60 -3.80 -2 -8.39 -6 -4.80 -4 -14.19 -9.99 -20.98 -13.39 -12.19 -6 -12.99 -6 -35.97 -5.20 -21.38 0.80 -24.98 1.40 -36.97 6.99 -10.19 4.80 -14.99 8.59 -21.38 16.99 -10.99 14.79 -14.59 25.38 -14.99 44.17 l-0.20 15.59 -14.59 5.80 c-7.99 3 -15.59 6.40 -16.99 7.59 -1.40 1 -4.40 2.40 -6.99 3 -4 1 -5.20 0 -7.79 -6.20z" />
  </g>
</svg>
